<svg width="1179" height="2556" viewBox="0 0 1179 2556" fill="none" xmlns="http://www.w3.org/2000/svg">
  <defs>
    <linearGradient id="bg" x1="128" y1="120" x2="1010" y2="2380" gradientUnits="userSpaceOnUse">
      <stop stop-color="#FCFBF7"/>
      <stop offset="0.55" stop-color="#F7F3EC"/>
      <stop offset="1" stop-color="#F3EDE4"/>
    </linearGradient>
    <linearGradient id="hero" x1="130" y1="238" x2="1010" y2="840" gradientUnits="userSpaceOnUse">
      <stop stop-color="#FFF4E7"/>
      <stop offset="0.5" stop-color="#F8E7D1"/>
      <stop offset="1" stop-color="#EFD2B6"/>
    </linearGradient>
    <filter id="shadowLg" x="96" y="190" width="987" height="816" filterUnits="userSpaceOnUse" color-interpolation-filters="sRGB">
      <feFlood flood-opacity="0" result="BackgroundImageFix"/>
      <feColorMatrix in="SourceAlpha" type="matrix" values="0 0 0 0 0 0 0 0 0 0 0 0 0 0 0 0 0 0 127 0" result="hardAlpha"/>
      <feOffset dy="18"/>
      <feGaussianBlur stdDeviation="22"/>
      <feColorMatrix type="matrix" values="0 0 0 0 0.432 0 0 0 0 0.309 0 0 0 0 0.17 0 0 0 0.08 0"/>
      <feBlend mode="normal" in2="BackgroundImageFix" result="effect1_dropShadow_1_1"/>
      <feBlend mode="normal" in="SourceGraphic" in2="effect1_dropShadow_1_1" result="shape"/>
    </filter>
    <filter id="shadowMd" x="102" y="1110" width="975" height="430" filterUnits="userSpaceOnUse" color-interpolation-filters="sRGB">
      <feFlood flood-opacity="0" result="BackgroundImageFix"/>
      <feColorMatrix in="SourceAlpha" type="matrix" values="0 0 0 0 0 0 0 0 0 0 0 0 0 0 0 0 0 0 127 0" result="hardAlpha"/>
      <feOffset dy="18"/>
      <feGaussianBlur stdDeviation="18"/>
      <feColorMatrix type="matrix" values="0 0 0 0 0.24 0 0 0 0 0.19 0 0 0 0 0.14 0 0 0 0.1 0"/>
      <feBlend mode="normal" in2="BackgroundImageFix" result="effect1_dropShadow_1_1"/>
      <feBlend mode="normal" in="SourceGraphic" in2="effect1_dropShadow_1_1" result="shape"/>
    </filter>
    <filter id="navShadow" x="123" y="2220" width="933" height="250" filterUnits="userSpaceOnUse" color-interpolation-filters="sRGB">
      <feFlood flood-opacity="0" result="BackgroundImageFix"/>
      <feColorMatrix in="SourceAlpha" type="matrix" values="0 0 0 0 0 0 0 0 0 0 0 0 0 0 0 0 0 0 127 0" result="hardAlpha"/>
      <feOffset dy="14"/>
      <feGaussianBlur stdDeviation="20"/>
      <feColorMatrix type="matrix" values="0 0 0 0 0.31 0 0 0 0 0.22 0 0 0 0 0.11 0 0 0 0.1 0"/>
      <feBlend mode="normal" in2="BackgroundImageFix" result="effect1_dropShadow_1_1"/>
      <feBlend mode="normal" in="SourceGraphic" in2="effect1_dropShadow_1_1" result="shape"/>
    </filter>
  </defs>

  <rect width="1179" height="2556" fill="url(#bg)"/>

  <text x="104" y="106" fill="#111111" font-size="42" font-family="SF Pro Display, Arial, sans-serif" font-weight="700">00:35</text>
  <g transform="translate(910 48)">
    <rect x="0" y="0" width="24" height="24" rx="6" fill="#111111"/>
    <rect x="31" y="-10" width="24" height="34" rx="6" fill="#111111"/>
    <rect x="62" y="-20" width="24" height="44" rx="6" fill="#111111"/>
    <rect x="93" y="-4" width="24" height="28" rx="6" fill="#111111"/>
  </g>
  <path d="M1006 62C1028.5 62 1047.7 78.5 1054 100H1050.2C1044.2 80.5 1026.5 66.5 1006 66.5C985.5 66.5 967.8 80.5 961.8 100H958C964.3 78.5 983.5 62 1006 62ZM1006 79C1019.3 79 1030.9 87.2 1035.7 99.2H1031.5C1027 89.5 1017.2 82.8 1006 82.8C994.8 82.8 985 89.5 980.5 99.2H976.3C981.1 87.2 992.7 79 1006 79ZM1006 94.5C1011.1 94.5 1015.6 96.7 1018.7 100.2H993.3C996.4 96.7 1000.9 94.5 1006 94.5Z" fill="#111111"/>
  <rect x="1070" y="60" width="72" height="40" rx="20" stroke="#111111" stroke-width="4"/>
  <rect x="1078" y="68" width="42" height="24" rx="12" fill="#111111"/>
  <rect x="1144" y="72" width="7" height="16" rx="3.5" fill="#B6B1A8"/>

  <circle cx="108" cy="193" r="46" fill="#FFFFFF" fill-opacity="0.92"/>
  <path d="M123 193H92" stroke="#111111" stroke-width="6" stroke-linecap="round"/>
  <path d="M109 176L92 193L109 210" stroke="#111111" stroke-width="6" stroke-linecap="round" stroke-linejoin="round"/>

  <g filter="url(#shadowLg)">
    <rect x="140" y="236" width="899" height="728" rx="44" fill="url(#hero)"/>
    <circle cx="889" cy="364" r="142" fill="#FFFFFF" fill-opacity="0.25"/>
    <circle cx="285" cy="849" r="118" fill="#D18F5B" fill-opacity="0.16"/>
    <text x="200" y="348" fill="#6F4D31" font-size="26" font-family="SF Pro Text, Arial, sans-serif" font-weight="700" letter-spacing="5">СЕМЕЙНЫЙ ЗАПРОС</text>
    <text x="200" y="470" fill="#121212" font-size="84" font-family="SF Pro Display, Arial, sans-serif" font-weight="700">Плов с любовью 4</text>

    <g>
      <rect x="200" y="546" width="248" height="62" rx="31" fill="#FFFFFF" fill-opacity="0.6"/>
      <circle cx="240" cy="577" r="15" stroke="#A78A6F" stroke-width="3"/>
      <path d="M226 602C231 590 249 590 254 602" stroke="#A78A6F" stroke-width="3" stroke-linecap="round"/>
      <text x="274" y="588" fill="#745B45" font-size="28" font-family="SF Pro Text, Arial, sans-serif" font-weight="500">Женщина</text>
    </g>

    <g>
      <rect x="468" y="546" width="292" height="62" rx="31" fill="#FFFFFF" fill-opacity="0.6"/>
      <path d="M504 559H531V587H504V559Z" stroke="#A78A6F" stroke-width="3"/>
      <path d="M504 571H531" stroke="#A78A6F" stroke-width="3"/>
      <path d="M512 548V565" stroke="#A78A6F" stroke-width="3" stroke-linecap="round"/>
      <path d="M523 548V565" stroke="#A78A6F" stroke-width="3" stroke-linecap="round"/>
      <text x="548" y="588" fill="#745B45" font-size="28" font-family="SF Pro Text, Arial, sans-serif" font-weight="500">28 февр. 2026</text>
    </g>

    <g>
      <rect x="200" y="660" width="562" height="160" rx="32" fill="#FFFDF9" fill-opacity="0.82"/>
      <text x="236" y="716" fill="#8F7662" font-size="24" font-family="SF Pro Text, Arial, sans-serif" font-weight="600" letter-spacing="2">БЛЮДО</text>
      <text x="236" y="784" fill="#171717" font-size="54" font-family="SF Pro Display, Arial, sans-serif" font-weight="700">ПЛОВ</text>
    </g>

    <g>
      <rect x="790" y="660" width="169" height="160" rx="32" fill="#7E5636"/>
      <circle cx="875" cy="714" r="23" fill="#FFFFFF" fill-opacity="0.18"/>
      <path d="M885 714H865" stroke="#FFF3E7" stroke-width="4" stroke-linecap="round"/>
      <path d="M875 703L865 714L875 725" stroke="#FFF3E7" stroke-width="4" stroke-linecap="round" stroke-linejoin="round"/>
      <text x="827" y="772" fill="#FFF3E7" font-size="24" font-family="SF Pro Text, Arial, sans-serif" font-weight="700">Уточнить</text>
      <text x="821" y="802" fill="#F7D8BE" font-size="18" font-family="SF Pro Text, Arial, sans-serif" font-weight="500">1 вопрос</text>
    </g>

    <text x="200" y="900" fill="#8B6A4D" font-size="24" font-family="SF Pro Text, Arial, sans-serif" font-weight="600">Быстрый запрос вместо большой кнопки</text>
  </g>

  <g filter="url(#shadowMd)">
    <rect x="138" y="1144" width="903" height="358" rx="40" fill="#FFFCF7"/>
    <text x="196" y="1230" fill="#8E6C50" font-size="24" font-family="SF Pro Text, Arial, sans-serif" font-weight="700" letter-spacing="3">МОЯ ЗАМЕТКА</text>
    <text x="196" y="1316" fill="#191919" font-size="54" font-family="SF Pro Display, Arial, sans-serif" font-weight="700">Готовить на огне</text>
    <text x="196" y="1384" fill="#8B8174" font-size="30" font-family="SF Pro Text, Arial, sans-serif" font-weight="400">Короткая личная ремарка прямо в карточке,</text>
    <text x="196" y="1426" fill="#8B8174" font-size="30" font-family="SF Pro Text, Arial, sans-serif" font-weight="400">а не отдельным рыхлым блоком ниже.</text>

    <g>
      <rect x="794" y="1212" width="182" height="62" rx="31" fill="#F2E5D6"/>
      <text x="844" y="1252" fill="#835631" font-size="26" font-family="SF Pro Text, Arial, sans-serif" font-weight="700">Править</text>
    </g>

    <g>
      <rect x="196" y="1462" width="272" height="1.5" fill="#E7D5C4"/>
      <circle cx="494" cy="1462" r="6" fill="#D0A37A"/>
      <text x="520" y="1471" fill="#A18872" font-size="24" font-family="SF Pro Text, Arial, sans-serif" font-weight="500">личная подсказка к рецепту</text>
    </g>
  </g>

  <text x="158" y="1618" fill="#9A8B7A" font-size="24" font-family="SF Pro Text, Arial, sans-serif" font-weight="600">Ниже можно оставить историю запроса, ответы или связанные заметки.</text>

  <g filter="url(#navShadow)">
    <rect x="163" y="2240" width="853" height="158" rx="79" fill="#FFFDF9"/>
    <rect x="186" y="2263" width="254" height="112" rx="56" fill="#EDE5DB"/>
    <path d="M275 2296C275 2278 288 2266 306 2266C324 2266 337 2278 337 2296V2342H321V2297C321 2289 315 2283 307 2283C299 2283 293 2289 293 2297V2342H275V2296ZM245 2296C245 2278 258 2266 276 2266V2342H258C251 2342 245 2336 245 2329V2296Z" fill="#1777F2"/>
    <text x="275" y="2368" fill="#1777F2" font-size="26" font-family="SF Pro Text, Arial, sans-serif" font-weight="700">Рецепты</text>

    <path d="M595 2282L640 2370L687 2282L595 2321L687 2282" fill="#1A1A1A"/>
    <text x="559" y="2368" fill="#1A1A1A" font-size="26" font-family="SF Pro Text, Arial, sans-serif" font-weight="600">Запросить</text>

    <circle cx="840" cy="2320" r="7" fill="#1A1A1A"/>
    <circle cx="870" cy="2320" r="7" fill="#1A1A1A"/>
    <circle cx="900" cy="2320" r="7" fill="#1A1A1A"/>
    <text x="840" y="2368" fill="#1A1A1A" font-size="26" font-family="SF Pro Text, Arial, sans-serif" font-weight="600">Ещё</text>
  </g>
</svg>
